<svg xmlns="http://www.w3.org/2000/svg" xmlns:xlink="http://www.w3.org/1999/xlink" width="95.475" height="30.178" viewBox="0 0 95.475 30.178">
  <defs>
    <clipPath id="clip-path">
      <rect width="95.476" height="30.178" fill="none"/>
    </clipPath>
  </defs>
  <g id="Logo" transform="translate(0.001 0)" clip-path="url(#clip-path)">
    <g id="그룹_3179" data-name="그룹 3179">
      <path id="제외_1" data-name="제외 1" d="M15.092,30.178A8.728,8.728,0,0,1,8.876,27.61L2.57,21.3a8.8,8.8,0,0,1,0-12.431L8.876,2.567a8.808,8.808,0,0,1,12.431,0l6.305,6.306a8.807,8.807,0,0,1,0,12.431L21.308,27.61A8.73,8.73,0,0,1,15.092,30.178ZM14.641,5.45a3.234,3.234,0,0,0-2.4.961c-1.036,1.036-1.561,2.834-1.561,5.345,0,.054.01.138.016.254v.01c.353,5.906,1.753,8.864,2.865,10.305a5.662,5.662,0,0,0,1.381,1.322,3.758,3.758,0,0,0,2.223.721,3.956,3.956,0,0,0,.84-.06h.06a8.12,8.12,0,0,0,4.5-3.843.882.882,0,0,0-.241-1.2.863.863,0,0,0-.421-.121.914.914,0,0,0-.721.42A6.706,6.706,0,0,1,17.7,22.626a1.323,1.323,0,0,1-.48.06,2.16,2.16,0,0,1-1.322-.421,4.841,4.841,0,0,1-.961-.961,11.6,11.6,0,0,1-1.959-4.774,27.186,27.186,0,0,1-.563-4.774c0-2,.374-3.437,1.081-4.144a1.814,1.814,0,0,1,1.261-.48,1.589,1.589,0,0,1,1.261.48c.756.755,1.14,2.227,1.081,4.144a14.4,14.4,0,0,1-1.981,7.507.771.771,0,0,0-.1.6.843.843,0,0,0,.4.537.877.877,0,0,0,.42.12.9.9,0,0,0,.721-.42,17.257,17.257,0,0,0,2.223-8.347c0-2.511-.525-4.309-1.561-5.345a3.138,3.138,0,0,0-2.4-.961ZM11.278,22.506a.962.962,0,0,0-.661.3.9.9,0,0,0-.24.66,1.023,1.023,0,0,0,.961.9h0a1.083,1.083,0,0,0,.733-.389.757.757,0,0,0,.167-.572A.9.9,0,0,0,11.278,22.506Z" fill="#DA291C"/>
    </g>
    <g id="그룹_3182" data-name="그룹 3182" transform="translate(36.441 4.909)">
      <g id="그룹_3180" data-name="그룹 3180">
        <path id="패스_4594" data-name="패스 4594" d="M302.806,403.2c-4.144,0-6.606,2.582-6.606,5.705,0,3.183,2.462,5.705,6.606,5.705s6.606-2.582,6.606-5.705c0-3.183-2.462-5.705-6.606-5.705m0,10.209c-1.982,0-3.483-1.982-3.483-4.5,0-2.462,1.5-4.5,3.483-4.5s3.483,1.982,3.483,4.5c0,2.462-1.5,4.5-3.483,4.5" transform="translate(-286.471 -403.2)" fill="#DA291C"/>
        <path id="패스_4595" data-name="패스 4595" d="M319.2,405.161h4.324v9.248h3.3v-9.248h3.663V403.9H319.2Z" transform="translate(-295.658 -403.48)" fill="#DA291C"/>
        <path id="패스_4596" data-name="패스 4596" d="M340,405.161h3.723v9.248h3.243v-9.248h4.384V403.9H340Z" transform="translate(-303.967 -403.48)" fill="#DA291C"/>
        <path id="패스_4597" data-name="패스 4597" d="M283.183,412.548V403.9H280v9.309a1.231,1.231,0,0,0,1.261,1.261h8.047v-1.261h-5.525a.706.706,0,0,1-.6-.661" transform="translate(-280 -403.48)" fill="#DA291C"/>
        <path id="패스_4598" data-name="패스 4598" d="M361.9,405.161v8.047a1.231,1.231,0,0,0,1.261,1.261h8.588v-1.261h-6.066a.6.6,0,0,1-.6-.6v-3.123h6.606v-1.261h-6.606v-2.462a.6.6,0,0,1,.6-.6h6.066V403.9h-8.588a1.232,1.232,0,0,0-1.261,1.261" transform="translate(-312.715 -403.48)" fill="#DA291C"/>
      </g>
      <g id="그룹_3181" data-name="그룹 3181" transform="translate(0.12 14.653)">
        <path id="패스_4599" data-name="패스 4599" d="M286.566,431.5a4.482,4.482,0,0,1-.42.721,1.878,1.878,0,0,1-.661.541,2.034,2.034,0,0,1-.9.36,2.982,2.982,0,0,1-1.081.12,3.524,3.524,0,0,1-1.381-.24,2.873,2.873,0,0,1-1.021-.6,2.508,2.508,0,0,1-.661-.9,3.507,3.507,0,0,1-.24-1.081,2.982,2.982,0,0,1,.841-1.982,4.163,4.163,0,0,1,1.021-.6,4.73,4.73,0,0,1,1.381-.24,6.648,6.648,0,0,1,1.141.12,2.106,2.106,0,0,1,.841.36,6.386,6.386,0,0,1,.661.541,4.474,4.474,0,0,1,.42.721H285c-.06-.18-.18-.3-.24-.48-.12-.12-.24-.3-.36-.36a.968.968,0,0,0-.42-.24,1.323,1.323,0,0,0-.48-.06,1.21,1.21,0,0,0-.661.18,3.885,3.885,0,0,0-.54.48,1.37,1.37,0,0,0-.36.721,3.544,3.544,0,0,0-.12.841,4.636,4.636,0,0,0,.12.9,8.041,8.041,0,0,0,.36.721,3.884,3.884,0,0,0,.54.48,1.21,1.21,0,0,0,.661.18,1.321,1.321,0,0,0,.48-.06.967.967,0,0,0,.42-.24l.36-.36a1.8,1.8,0,0,0,.24-.48h1.561Z" transform="translate(-280.2 -427.6)" fill="#DA291C"/>
        <path id="패스_4600" data-name="패스 4600" d="M299.5,428.2h1.561v5.165H299.5Z" transform="translate(-287.909 -427.84)" fill="#DA291C"/>
        <path id="패스_4601" data-name="패스 4601" d="M317.185,432.884a.459.459,0,0,1-.12.3.508.508,0,0,1-.36.12h-.841a.7.7,0,0,1-.42-.12c-.12-.06-.18-.18-.3-.3l-2.282-3.6V433.3H311.3V428.62a.459.459,0,0,1,.12-.3.508.508,0,0,1,.36-.12h.9a.868.868,0,0,1,.42.12c.12.06.18.18.3.3l2.222,3.6V428.2h1.561Z" transform="translate(-292.623 -427.84)" fill="#DA291C"/>
        <path id="패스_4602" data-name="패스 4602" d="M335,430.182v.6h-3.243v1.561c0,.06,0,.06.06.12,0,.06.06.06.12.06h3.123v.6h-4.384a.312.312,0,0,1-.24-.12.829.829,0,0,1-.18-.24.891.891,0,0,1-.06-.42v-3.663a.89.89,0,0,1,.06-.42.829.829,0,0,1,.18-.24c.06-.06.12-.06.24-.12h4.384v.6h-2.883a.45.45,0,0,0-.3.06.353.353,0,0,0-.12.3V430H335Z" transform="translate(-300.172 -427.72)" fill="#DA291C"/>
        <path id="패스_4603" data-name="패스 4603" d="M350.363,433.265h-.18c-.06,0-.12,0-.12-.06a.129.129,0,0,1-.12-.12.458.458,0,0,1-.12-.3l-1.321-3.363V433.2h-.9V428.52a.459.459,0,0,1,.12-.3.508.508,0,0,1,.36-.12H349.1a.868.868,0,0,1,.42.12.6.6,0,0,1,.24.3l1.081,2.943,1.141-2.943a.6.6,0,0,1,.24-.3.868.868,0,0,1,.42-.12h1.081a.508.508,0,0,1,.36.12.459.459,0,0,1,.12.3V433.2h-1.561v-3.9l-1.381,3.543c-.06.12-.06.18-.12.24l-.12.12a.21.21,0,0,0-.12.06h-.54Z" transform="translate(-307.123 -427.8)" fill="#DA291C"/>
        <path id="패스_4604" data-name="패스 4604" d="M371.845,433.265l-.541-1.021h-2.943l-.54,1.021H366.8l2.582-4.8a.469.469,0,0,1,.24-.24c.12-.06.18-.12.3-.12h.541a.855.855,0,0,1,.36.12.469.469,0,0,1,.24.24l2.4,4.8Zm-3.183-1.621H371l-.9-1.742c-.06-.06-.06-.12-.12-.18a.3.3,0,0,0-.36,0c-.06.06-.06.12-.12.18Z" transform="translate(-314.792 -427.8)" fill="#DA291C"/>
      </g>
    </g>
  </g>
</svg>
