<svg xmlns="http://www.w3.org/2000/svg" width="24" height="24" viewBox="0 0 24 24"><g transform="translate(-5660 1242)"><rect width="24" height="24" transform="translate(5660 -1242)" fill="none"/><g transform="translate(5663 -1239)" fill="#fff"><path d="M 16.97039985656738 16.97070121765137 L 9.192450523376465 9.192750930786133 L 8.838900566101074 8.839190483093262 L 8.485350608825684 9.192750930786133 L 0.7074005603790283 16.97070121765137 L 0.7071005702018738 16.97039985656738 L 8.485050201416016 9.192450523376465 L 8.838610649108887 8.838900566101074 L 8.485050201416016 8.485350608825684 L 0.7071005702018738 0.7074005603790283 L 0.7074005603790283 0.7071005702018738 L 8.485350608825684 8.485050201416016 L 8.838900566101074 8.838610649108887 L 9.192450523376465 8.485050201416016 L 16.97039985656738 0.7071005702018738 L 16.97070121765137 0.7074005603790283 L 9.192750930786133 8.485350608825684 L 8.839190483093262 8.838900566101074 L 9.192750930786133 9.192450523376465 L 16.97070121765137 16.97039985656738 L 16.97039985656738 16.97070121765137 Z" stroke="none"/><path d="M 16.97039985656738 17.67780113220215 L 8.838900566101074 9.546300888061523 L 0.7074005603790283 17.67780113220215 L 5.661010504809383e-07 16.97039985656738 L 8.131500244140625 8.838900566101074 L 5.661010504809383e-07 0.7074005603790283 L 0.7074005603790283 5.661010504809383e-07 L 8.838900566101074 8.131500244140625 L 16.97039985656738 5.661010504809383e-07 L 17.67780113220215 0.7074005603790283 L 9.546300888061523 8.838900566101074 L 17.67780113220215 16.97039985656738 L 16.97039985656738 17.67780113220215 Z" stroke="none" fill="#000"/></g></g></svg>